<svg width="16" height="16" viewBox="0 0 16 16" fill="none" xmlns="http://www.w3.org/2000/svg">
<path d="M6.66667 14H9.33333C9.33333 14.7333 8.73333 15.3333 8 15.3333C7.26667 15.3333 6.66667 14.7333 6.66667 14ZM14 12.6666V13.3333H2V12.6666L3.33333 11.3333V7.33331C3.33333 5.26665 4.66667 3.46665 6.66667 2.86665V2.66665C6.66667 1.93331 7.26667 1.33331 8 1.33331C8.73333 1.33331 9.33333 1.93331 9.33333 2.66665V2.86665C11.3333 3.46665 12.6667 5.26665 12.6667 7.33331V11.3333L14 12.6666ZM11.3333 7.33331C11.3333 5.46665 9.86667 3.99998 8 3.99998C6.13333 3.99998 4.66667 5.46665 4.66667 7.33331V12H11.3333V7.33331Z" fill="#606060"/>
</svg>
