<svg width="18" height="18" viewBox="0 0 18 18" fill="none" xmlns="http://www.w3.org/2000/svg">
<path d="M5.00063 5.72767C4.92047 6.58267 4.86422 8.0958 5.36906 8.73986C5.36906 8.73986 5.13141 7.07767 7.26188 4.9922C8.11969 4.15267 8.31797 3.0108 8.01844 2.15439C7.84828 1.66924 7.5375 1.26845 7.2675 0.98861C7.11 0.824079 7.23094 0.552673 7.46016 0.562516C8.84672 0.624391 11.0939 1.0097 12.0487 3.40595C12.4678 4.45783 12.4987 5.54486 12.2991 6.65017C12.1725 7.35611 11.7225 8.92548 12.7491 9.11814C13.4817 9.25595 13.8361 8.67377 13.995 8.2547C14.0611 8.08033 14.2903 8.03674 14.4141 8.17595C15.6516 9.58361 15.757 11.2416 15.5011 12.6689C15.0061 15.428 12.2119 17.4361 9.43594 17.4361C5.96812 17.4361 3.20766 15.4519 2.49187 11.8603C2.20359 10.4105 2.34984 7.54174 4.58578 5.51674C4.75172 5.36486 5.02313 5.49986 5.00063 5.72767Z" fill="url(#paint0_radial_13_100)"/>
<path d="M10.703 10.8872C9.42469 9.24184 9.99703 7.3645 10.3106 6.61638C10.3528 6.51794 10.2403 6.42513 10.1517 6.48559C9.60188 6.85966 8.47547 7.73997 7.95094 8.97888C7.24078 10.6537 7.29141 11.4736 7.71188 12.4748C7.965 13.0781 7.67109 13.2061 7.52344 13.2286C7.38 13.2511 7.24781 13.1554 7.14234 13.0556C6.83893 12.7643 6.62271 12.3942 6.51797 11.9868C6.49547 11.8997 6.38156 11.8758 6.32953 11.9475C5.93578 12.4917 5.73187 13.365 5.72203 13.9823C5.69109 15.8906 7.2675 17.4375 9.17438 17.4375C11.5777 17.4375 13.3284 14.7797 11.9475 12.5578C11.5467 11.9109 11.1698 11.4876 10.703 10.8872Z" fill="url(#paint1_radial_13_100)"/>
<defs>
<radialGradient id="paint0_radial_13_100" cx="0" cy="0" r="1" gradientUnits="userSpaceOnUse" gradientTransform="translate(8.74909 17.4798) rotate(-179.751) scale(9.92639 16.2872)">
<stop offset="0.314" stop-color="#FF9800"/>
<stop offset="0.662" stop-color="#FF6D00"/>
<stop offset="0.972" stop-color="#F44336"/>
</radialGradient>
<radialGradient id="paint1_radial_13_100" cx="0" cy="0" r="1" gradientUnits="userSpaceOnUse" gradientTransform="translate(9.30656 7.60193) rotate(90.5787) scale(10.3861 7.81629)">
<stop offset="0.214" stop-color="#FFF176"/>
<stop offset="0.328" stop-color="#FFF27D"/>
<stop offset="0.487" stop-color="#FFF48F"/>
<stop offset="0.672" stop-color="#FFF7AD"/>
<stop offset="0.793" stop-color="#FFF9C4"/>
<stop offset="0.822" stop-color="#FFF8BD" stop-opacity="0.804"/>
<stop offset="0.863" stop-color="#FFF6AB" stop-opacity="0.529"/>
<stop offset="0.91" stop-color="#FFF38D" stop-opacity="0.209"/>
<stop offset="0.941" stop-color="#FFF176" stop-opacity="0"/>
</radialGradient>
</defs>
</svg>
