<svg width="25" height="24" viewBox="0 0 25 24" fill="none" xmlns="http://www.w3.org/2000/svg">
<path d="M15.5938 19.5C15.5938 21.157 14.6258 22.5 12.9688 22.5H6.78125C5.12422 22.5 4.15625 21.157 4.15625 19.5M16.25 15.75C17.0783 15.75 17.75 16.5895 17.75 17.625C17.75 18.6605 17.0783 19.5 16.25 19.5H3.5C2.67172 19.5 2 18.6605 2 17.625C2 16.5895 2.67172 15.75 3.5 15.75" stroke="#606060" stroke-width="1.5" stroke-miterlimit="10" stroke-linecap="round"/>
<path d="M3.5 12.9375V12.9272C3.5 10.3491 5.60938 9 8.1875 9H11.5625C14.1406 9 16.25 10.3594 16.25 12.9375V12.9272M11.7969 5.25L12.1456 8.24859M16.625 15.75H8.90516C8.80583 15.75 8.71058 15.7895 8.64031 15.8597L7.38266 17.1173C7.36524 17.1348 7.34456 17.1486 7.3218 17.158C7.29904 17.1675 7.27464 17.1723 7.25 17.1723C7.22536 17.1723 7.20096 17.1675 7.1782 17.158C7.15544 17.1486 7.13476 17.1348 7.11734 17.1173L5.85969 15.8597C5.78942 15.7895 5.69417 15.75 5.59484 15.75H3.125C2.82663 15.75 2.54048 15.6315 2.3295 15.4205C2.11853 15.2095 2 14.9234 2 14.625C2 14.3266 2.11853 14.0405 2.3295 13.8295C2.54048 13.6185 2.82663 13.5 3.125 13.5H16.625C16.9234 13.5 17.2095 13.6185 17.4205 13.8295C17.6315 14.0405 17.75 14.3266 17.75 14.625C17.75 14.9234 17.6315 15.2095 17.4205 15.4205C17.2095 15.6315 16.9234 15.75 16.625 15.75Z" stroke="#606060" stroke-width="1.5" stroke-miterlimit="10" stroke-linecap="round"/>
<path d="M12.5 22.5H19.0302C19.4086 22.5 19.773 22.3569 20.0504 22.0995C20.3278 21.8421 20.4977 21.4894 20.5259 21.112L22.2031 5.25" stroke="#606060" stroke-width="1.5" stroke-miterlimit="10" stroke-linecap="round"/>
<path d="M17.75 5.25L18.5 2.25L20.7031 1.5" stroke="#606060" stroke-width="1.5" stroke-linecap="round" stroke-linejoin="round"/>
<path d="M11 5.25H23" stroke="#606060" stroke-width="1.5" stroke-miterlimit="10" stroke-linecap="round"/>
</svg>
