<svg width="18" height="18" viewBox="0 0 18 18" fill="none" xmlns="http://www.w3.org/2000/svg">
<g clip-path="url(#clip0_13_95)">
<path fill-rule="evenodd" clip-rule="evenodd" d="M12 11.25C12.9795 11.25 13.8135 11.8763 14.1225 12.75H15C15.1989 12.75 15.3897 12.829 15.5303 12.9697C15.671 13.1103 15.75 13.3011 15.75 13.5C15.75 13.6989 15.671 13.8897 15.5303 14.0303C15.3897 14.171 15.1989 14.25 15 14.25H14.1225C13.9675 14.6891 13.6802 15.0694 13.3001 15.3384C12.9199 15.6074 12.4657 15.7518 12 15.7518C11.5343 15.7518 11.0801 15.6074 10.6999 15.3384C10.3198 15.0694 10.0325 14.6891 9.8775 14.25H3C2.80109 14.25 2.61032 14.171 2.46967 14.0303C2.32902 13.8897 2.25 13.6989 2.25 13.5C2.25 13.3011 2.32902 13.1103 2.46967 12.9697C2.61032 12.829 2.80109 12.75 3 12.75H9.8775C10.0328 12.3112 10.3202 11.9313 10.7004 11.6627C11.0805 11.394 11.5345 11.2499 12 11.25ZM12 12.75C11.8011 12.75 11.6103 12.829 11.4697 12.9697C11.329 13.1103 11.25 13.3011 11.25 13.5C11.25 13.6989 11.329 13.8897 11.4697 14.0303C11.6103 14.171 11.8011 14.25 12 14.25C12.1989 14.25 12.3897 14.171 12.5303 14.0303C12.671 13.8897 12.75 13.6989 12.75 13.5C12.75 13.3011 12.671 13.1103 12.5303 12.9697C12.3897 12.829 12.1989 12.75 12 12.75ZM6 6.75C6.44174 6.74994 6.87373 6.87991 7.2421 7.12372C7.61047 7.36752 7.89893 7.71436 8.0715 8.121L8.12175 8.25H15C15.1912 8.25021 15.375 8.32341 15.514 8.45464C15.653 8.58586 15.7367 8.76521 15.7479 8.95605C15.7591 9.14688 15.697 9.33478 15.5743 9.48137C15.4516 9.62796 15.2776 9.72217 15.0878 9.74475L15 9.75H8.1225C7.9713 10.1777 7.69438 10.5498 7.32805 10.8173C6.96172 11.0849 6.52308 11.2356 6.06964 11.2495C5.6162 11.2635 5.16913 11.1401 4.78705 10.8955C4.40496 10.6509 4.1057 10.2966 3.9285 9.879L3.8775 9.75H3C2.80884 9.74979 2.62498 9.67659 2.48597 9.54536C2.34697 9.41414 2.26332 9.23479 2.25212 9.04395C2.24092 8.85312 2.30301 8.66522 2.4257 8.51863C2.54839 8.37204 2.72243 8.27783 2.91225 8.25525L3 8.25H3.8775C4.03276 7.81119 4.32024 7.43132 4.70036 7.16268C5.08048 6.89404 5.53454 6.74987 6 6.75ZM6 8.25C5.80109 8.25 5.61032 8.32902 5.46967 8.46967C5.32902 8.61032 5.25 8.80109 5.25 9C5.25 9.19891 5.32902 9.38968 5.46967 9.53033C5.61032 9.67098 5.80109 9.75 6 9.75C6.19891 9.75 6.38968 9.67098 6.53033 9.53033C6.67098 9.38968 6.75 9.19891 6.75 9C6.75 8.80109 6.67098 8.61032 6.53033 8.46967C6.38968 8.32902 6.19891 8.25 6 8.25ZM12 2.25C12.9795 2.25 13.8135 2.87625 14.1225 3.75H15C15.1989 3.75 15.3897 3.82902 15.5303 3.96967C15.671 4.11032 15.75 4.30109 15.75 4.5C15.75 4.69891 15.671 4.88968 15.5303 5.03033C15.3897 5.17098 15.1989 5.25 15 5.25H14.1225C13.9675 5.68915 13.6802 6.06943 13.3001 6.33841C12.9199 6.60739 12.4657 6.75184 12 6.75184C11.5343 6.75184 11.0801 6.60739 10.6999 6.33841C10.3198 6.06943 10.0325 5.68915 9.8775 5.25H3C2.80109 5.25 2.61032 5.17098 2.46967 5.03033C2.32902 4.88968 2.25 4.69891 2.25 4.5C2.25 4.30109 2.32902 4.11032 2.46967 3.96967C2.61032 3.82902 2.80109 3.75 3 3.75H9.8775C10.0328 3.31119 10.3202 2.93132 10.7004 2.66268C11.0805 2.39404 11.5345 2.24987 12 2.25ZM12 3.75C11.8011 3.75 11.6103 3.82902 11.4697 3.96967C11.329 4.11032 11.25 4.30109 11.25 4.5C11.25 4.69891 11.329 4.88968 11.4697 5.03033C11.6103 5.17098 11.8011 5.25 12 5.25C12.1989 5.25 12.3897 5.17098 12.5303 5.03033C12.671 4.88968 12.75 4.69891 12.75 4.5C12.75 4.30109 12.671 4.11032 12.5303 3.96967C12.3897 3.82902 12.1989 3.75 12 3.75Z" fill="white"/>
</g>
<defs>
<clipPath id="clip0_13_95">
<rect width="18" height="18" fill="white"/>
</clipPath>
</defs>
</svg>
